<svg width="81" height="51" viewBox="0 0 81 51" fill="none" xmlns="http://www.w3.org/2000/svg">
<path fill-rule="evenodd" clip-rule="evenodd" d="M10.6215 35.193L9.96658 36.0001C9.39713 36.7081 8.92496 37.2132 8.55007 37.5153C8.17519 37.8174 7.84063 37.9637 7.54642 37.9543C7.36609 37.9637 7.20475 37.926 7.06238 37.841C6.92002 37.756 6.80613 37.638 6.72071 37.487C6.6353 37.3643 6.5736 37.2061 6.53564 37.0126C6.49768 36.8191 6.70173 35.8727 7.1478 34.1734C7.42304 33.0972 7.16204 32.3821 6.36481 32.028C5.56758 31.674 4.65645 31.7519 3.63144 32.2617C3.04301 32.5638 2.5044 32.9744 2.01562 33.4937C1.52684 34.0129 1.17806 34.5793 0.969256 35.193C0.741476 35.8349 0.729612 36.3872 0.933662 36.8498C1.13772 37.3123 1.47702 37.6522 1.95156 37.8693C2.24578 38.0109 2.63965 38.0935 3.13317 38.1171C3.6267 38.1407 4.05853 38.0912 4.42868 37.9685C4.65645 37.9024 4.81779 37.8788 4.9127 37.8976C5.00762 37.9165 5.05507 37.9732 5.05507 38.0676C5.05507 38.1714 5.02422 38.2564 4.96253 38.3225C4.90084 38.3885 4.8083 38.4358 4.68493 38.4641C4.14395 38.6246 3.55314 38.7001 2.91251 38.6906C2.27188 38.6812 1.72852 38.5538 1.28245 38.3083C0.864855 38.0912 0.546911 37.8032 0.32862 37.4445C0.110331 37.0858 0.00118598 36.6421 0.00118598 36.1134C-0.00830313 35.7735 0.03915 35.4502 0.143551 35.1434C0.24795 34.8366 0.404547 34.5132 0.613347 34.1734C1.03095 33.4842 1.55531 32.9013 2.18646 32.4245C2.8176 31.9478 3.48433 31.6056 4.18665 31.3979C5.45843 31.0392 6.43836 31.169 7.12645 31.7873C7.81454 32.4057 7.99723 33.286 7.67455 34.4283C7.26644 35.8821 7.07188 36.6845 7.09086 36.8356C7.10984 36.9866 7.17153 37.1094 7.27593 37.2038C7.4088 37.3454 7.57015 37.3902 7.75996 37.3383C7.94978 37.2864 8.1823 37.1283 8.45754 36.8639C8.90361 36.4391 9.31171 35.9789 9.68186 35.4832C10.052 34.9876 10.4791 34.2867 10.9631 33.3804C11.1245 33.0783 11.2929 32.8376 11.4685 32.6582C11.6441 32.4788 11.8743 32.3891 12.159 32.3891C12.2159 32.3891 12.2705 32.4269 12.3227 32.5024C12.3749 32.5779 12.4057 32.6487 12.4152 32.7148C12.4057 32.7904 12.3179 32.9815 12.1519 33.2883C11.9858 33.5952 11.8268 33.9327 11.6749 34.3008C11.4946 34.7256 11.3095 35.2472 11.1197 35.8656C10.9299 36.4839 10.7875 37.0197 10.6926 37.4728C10.5598 38.077 10.4625 38.5844 10.4008 38.9951C10.3391 39.4058 10.3083 39.7291 10.3083 39.9651C10.2988 40.3805 10.3533 40.7085 10.472 40.9493C10.5906 41.19 10.7638 41.3387 10.9916 41.3953C11.2763 41.4614 11.44 41.5181 11.4827 41.5653C11.5255 41.6125 11.5468 41.6738 11.5468 41.7494C11.5468 41.7871 11.5231 41.8272 11.4756 41.8697C11.4282 41.9122 11.3807 41.9334 11.3333 41.9334C11.0011 41.924 10.6808 41.8249 10.3723 41.6361C10.0639 41.4473 9.85744 41.1782 9.75304 40.8289C9.63915 40.4985 9.61068 40.0548 9.66762 39.4978C9.72457 38.9408 9.85744 38.1856 10.0662 37.2321C10.1706 36.7412 10.2632 36.3518 10.3438 36.0638C10.4245 35.7759 10.5171 35.4856 10.6215 35.193ZM15.5472 36.1984C15.7275 36.1984 15.8414 36.2739 15.8889 36.4249C15.9363 36.576 15.8794 36.7601 15.718 36.9772C15.3384 37.4775 15.0062 38.0015 14.7215 38.549C14.4368 39.0966 14.2565 39.5686 14.1805 39.9651C14.1141 40.2578 14.0951 40.482 14.1236 40.6377C14.1521 40.7935 14.2137 40.8667 14.3087 40.8572C14.3751 40.8572 14.5032 40.7793 14.693 40.6236C14.8828 40.4678 15.0394 40.3191 15.1628 40.1775C15.3621 39.9509 15.5425 39.7173 15.7038 39.4766C15.8652 39.2358 16.0123 38.9833 16.1451 38.719C16.2211 38.5585 16.3183 38.3343 16.437 38.0463C16.5556 37.7584 16.6529 37.5672 16.7288 37.4728C16.8332 37.3312 16.9495 37.2533 17.0776 37.2392C17.2057 37.225 17.3078 37.2604 17.3837 37.3454C17.4406 37.4209 17.4644 37.5224 17.4549 37.6498C17.4454 37.7773 17.3932 37.9212 17.2983 38.0817C16.8902 38.7709 16.6576 39.1863 16.6007 39.3279C16.5438 39.4695 16.501 39.6158 16.4726 39.7669C16.3966 40.0784 16.3895 40.3168 16.4512 40.482C16.5129 40.6472 16.6339 40.6543 16.8142 40.5032C16.9946 40.3522 17.1725 40.1421 17.3481 39.8731C17.5237 39.604 17.7443 39.1863 18.0101 38.6198C18.0765 38.4688 18.1453 38.3626 18.2165 38.3012C18.2877 38.2399 18.3612 38.2092 18.4372 38.2092C18.5416 38.2092 18.6128 38.2611 18.6507 38.365C18.6887 38.4688 18.6744 38.5962 18.608 38.7473C18.4182 39.1627 18.1596 39.604 17.8321 40.0713C17.5047 40.5386 17.2034 40.8855 16.9281 41.1121C16.5865 41.3859 16.3089 41.4048 16.0953 41.1688C15.8818 40.9328 15.7987 40.5976 15.8462 40.1634C15.5804 40.5127 15.3432 40.7817 15.1344 40.9705C14.9256 41.1593 14.731 41.2962 14.5507 41.3812C14.3609 41.4567 14.1948 41.4827 14.0524 41.4591C13.91 41.4355 13.7867 41.3529 13.6823 41.2112C13.5399 41.0413 13.464 40.7959 13.4545 40.4749C13.445 40.1539 13.4924 39.8093 13.5968 39.4412C13.7107 38.9975 13.9172 38.4735 14.2161 37.8693C14.5151 37.2651 14.8117 36.7884 15.1059 36.4391C15.1723 36.3636 15.2388 36.3046 15.3052 36.2621C15.3716 36.2196 15.4523 36.1984 15.5472 36.1984ZM21.9108 35.7169C22.281 35.7169 22.5847 35.8656 22.8219 36.163C23.0592 36.4603 23.1636 36.8309 23.1351 37.2746C22.8884 37.9448 22.7033 38.3579 22.5799 38.5136C22.4565 38.6694 22.3284 38.7473 22.1955 38.7473C22.0817 38.7473 21.9891 38.7142 21.9179 38.6482C21.8468 38.5821 21.8159 38.4924 21.8254 38.3791C21.8254 38.3413 21.8278 38.3012 21.8325 38.2587C21.8373 38.2163 21.9915 37.8457 22.2952 37.1471C22.3332 36.9394 22.3166 36.7624 22.2454 36.6161C22.1742 36.4698 22.0484 36.3919 21.8681 36.3825C21.5834 36.3825 21.2536 36.609 20.8787 37.0622C20.5038 37.5153 20.193 37.9968 19.9462 38.5066C19.7944 38.8087 19.6852 39.0895 19.6188 39.3491C19.5523 39.6087 19.5191 39.8613 19.5191 40.1067C19.5191 40.4371 19.5927 40.6849 19.7398 40.8502C19.8869 41.0154 20.0696 41.098 20.2879 41.098C20.8099 41.098 21.4031 40.7888 22.0674 40.1704C22.7318 39.5521 23.2158 38.8795 23.5195 38.1525C23.5955 37.9732 23.6595 37.8575 23.7117 37.8056C23.7639 37.7537 23.828 37.7277 23.9039 37.7277C24.0273 37.7277 24.108 37.782 24.1459 37.8906C24.1839 37.9991 24.1744 38.1431 24.1175 38.3225C23.8422 39.1155 23.3155 39.866 22.5372 40.574C21.759 41.2821 21.0187 41.6361 20.3164 41.6361C19.8893 41.6361 19.5476 41.5063 19.2914 41.2466C19.0351 40.987 18.907 40.6307 18.907 40.1775C18.907 39.8093 18.9734 39.3916 19.1063 38.9243C19.2391 38.457 19.3958 38.0581 19.5761 37.7277C19.9083 37.1046 20.276 36.6137 20.6794 36.255C21.0827 35.8963 21.4932 35.7169 21.9108 35.7169ZM26.4664 35.3204C26.5613 35.3204 26.642 35.3652 26.7085 35.4549C26.7749 35.5446 26.8081 35.665 26.8081 35.816C26.7986 35.9576 26.6444 36.34 26.3454 36.963C26.0465 37.5861 25.7451 38.2705 25.4414 39.0163C26.0868 38.044 26.5946 37.3595 26.9647 36.963C27.3349 36.5665 27.6528 36.3683 27.9185 36.3683C28.0989 36.3683 28.2412 36.4226 28.3456 36.5311C28.45 36.6397 28.5022 36.8026 28.5022 37.0197C28.4927 37.2085 28.4477 37.4681 28.367 37.7985C28.2863 38.1289 28.1795 38.4924 28.0467 38.8889C28.8439 37.7844 29.373 37.1165 29.634 36.8852C29.895 36.6539 30.1299 36.5382 30.3387 36.5382C30.4716 36.5382 30.5736 36.5736 30.6448 36.6444C30.716 36.7152 30.7516 36.8214 30.7516 36.963C30.7516 37.0763 30.7255 37.2345 30.6733 37.4374C30.6211 37.6404 30.538 37.926 30.4241 38.2941C30.2628 38.7945 30.1465 39.2028 30.0753 39.519C30.0042 39.8353 29.9686 40.0737 29.9686 40.2342C29.9686 40.3852 29.9828 40.4985 30.0113 40.574C30.0397 40.6495 30.0777 40.6873 30.1252 40.6873C30.2201 40.6873 30.3292 40.6 30.4526 40.4253C30.576 40.2507 30.7848 39.8896 31.079 39.342C31.6105 38.3413 31.9166 37.8032 31.9972 37.7277C32.0779 37.6522 32.1657 37.6144 32.2606 37.6144C32.3365 37.6239 32.4006 37.6498 32.4528 37.6923C32.505 37.7348 32.5311 37.7938 32.5311 37.8693C32.5216 37.9448 32.4694 38.0817 32.3745 38.28C32.2796 38.4782 32.1277 38.7662 31.9189 39.1438C31.4254 40.0217 31.0339 40.6118 30.7444 40.9139C30.455 41.216 30.1963 41.367 29.9686 41.367C29.7787 41.367 29.615 41.2773 29.4774 41.098C29.3398 40.9186 29.271 40.6637 29.271 40.3333C29.271 40.305 29.2686 40.2908 29.2639 40.2908C29.2591 40.2908 29.475 39.4695 29.9116 37.8268C29.9211 37.7891 29.9259 37.7608 29.9259 37.7419C29.9259 37.723 29.9211 37.7041 29.9116 37.6852C29.9021 37.6758 29.8879 37.6687 29.8689 37.664C29.8499 37.6593 29.8357 37.6522 29.8262 37.6428C29.7598 37.6428 29.6008 37.7962 29.3493 38.103C29.0978 38.4098 28.8107 38.7945 28.488 39.2571C27.5674 40.5599 27.0952 41.216 27.0715 41.2254C27.0478 41.2348 27.0311 41.2396 27.0217 41.2396C26.9457 41.2396 26.8793 41.1876 26.8223 41.0838C26.7654 40.98 26.7369 40.8525 26.7369 40.7015C26.7369 40.6731 26.7369 40.6425 26.7369 40.6094C26.7369 40.5764 26.9173 40.0595 27.2779 39.0588C27.5247 38.3697 27.6718 37.9472 27.7192 37.7914C27.7667 37.6357 27.7904 37.5059 27.7904 37.402C27.7904 37.3454 27.7762 37.3029 27.7477 37.2746C27.7192 37.2463 27.6765 37.2321 27.6196 37.2321C27.5816 37.2321 27.527 37.2628 27.4559 37.3241C27.3847 37.3855 27.2874 37.4823 27.164 37.6144C26.7939 38.0204 26.4 38.5325 25.9824 39.1509C25.5648 39.7692 25.2516 40.3144 25.0428 40.7864C24.9384 41.0036 24.8459 41.1499 24.7652 41.2254C24.6845 41.3009 24.5967 41.3387 24.5018 41.3387C24.4164 41.3293 24.3405 41.2797 24.2741 41.19C24.2076 41.1003 24.1744 40.98 24.1744 40.8289C24.1744 40.5835 24.2741 40.1893 24.4734 39.6465C24.6727 39.1037 24.9811 38.3697 25.3987 37.4445C25.5221 37.1613 25.5909 37.0032 25.6051 36.9701C25.6194 36.9371 25.6312 36.9064 25.6407 36.8781C25.6502 36.8214 25.6597 36.694 25.6692 36.4957C25.6787 36.2975 25.7119 36.1323 25.7689 36.0001C25.8258 35.8585 25.9278 35.7098 26.0749 35.5541C26.2221 35.3983 26.3526 35.3204 26.4664 35.3204ZM35.1079 39.5969C34.9086 39.663 34.733 39.637 34.5811 39.519C34.4293 39.401 34.3533 39.2476 34.3533 39.0588C34.3533 38.8795 34.415 38.7355 34.5384 38.6269C34.6618 38.5184 34.8231 38.4594 35.0224 38.4499C35.1458 38.4499 35.2645 38.4853 35.3783 38.5561C35.4922 38.6269 35.5824 38.7237 35.6488 38.8464C35.8197 38.8559 35.9858 38.8441 36.1471 38.811C36.3085 38.778 36.4698 38.7142 36.6311 38.6198C36.7261 38.2989 36.8328 38.0204 36.9515 37.7844C37.0701 37.5483 37.1864 37.3926 37.3003 37.3171C37.4616 37.2132 37.6134 37.1967 37.7558 37.2675C37.8982 37.3383 37.9694 37.4681 37.9694 37.6569C37.9599 37.808 37.8982 37.9803 37.7843 38.1738C37.6704 38.3673 37.528 38.5302 37.3572 38.6623C37.2148 38.9172 37.1033 39.1792 37.0226 39.4482C36.942 39.7173 36.9016 39.9462 36.9016 40.135C36.8921 40.305 36.9088 40.4324 36.9515 40.5174C36.9942 40.6023 37.0535 40.6448 37.1294 40.6448C37.1674 40.6448 37.2196 40.6141 37.286 40.5528C37.3525 40.4914 37.4379 40.3899 37.5423 40.2483C37.6846 40.0595 37.8199 39.8613 37.948 39.6536C38.0761 39.4459 38.2446 39.1013 38.4534 38.6198C38.5293 38.4499 38.5981 38.3295 38.6598 38.2587C38.7215 38.1879 38.7903 38.1525 38.8662 38.1525C38.9706 38.1525 39.0442 38.195 39.0869 38.28C39.1296 38.365 39.1272 38.4924 39.0798 38.6623C38.9849 38.9644 38.8046 39.3161 38.5388 39.7173C38.2731 40.1185 37.9883 40.4749 37.6846 40.7864C37.5138 40.9658 37.3619 41.0932 37.2291 41.1688C37.0962 41.2443 36.9681 41.2821 36.8447 41.2821C36.7118 41.2821 36.5932 41.1947 36.4888 41.0201C36.3844 40.8454 36.3322 40.5882 36.3322 40.2483C36.3322 40.0595 36.3417 39.8872 36.3607 39.7315C36.3796 39.5757 36.4129 39.4176 36.4603 39.2571C36.3369 39.3043 36.2135 39.3397 36.0902 39.3633C35.9668 39.3869 35.8481 39.4034 35.7343 39.4128C35.6583 40.017 35.4116 40.5268 34.994 40.9422C34.5764 41.3576 34.1778 41.5653 33.7981 41.5653C33.3615 41.5653 33.0768 41.3245 32.9439 40.8431C32.8111 40.3616 32.849 39.7574 33.0578 39.0305C33.1717 38.6246 33.3449 38.1856 33.5775 37.7136C33.81 37.2415 34.0354 36.8545 34.2537 36.5524C34.3486 36.4297 34.4411 36.3423 34.5313 36.2904C34.6215 36.2385 34.7235 36.2125 34.8374 36.2125C34.9892 36.2125 35.0818 36.2786 35.115 36.4108C35.1482 36.5429 35.1079 36.6987 34.994 36.8781C34.3011 37.926 33.9168 38.5302 33.8408 38.6906C33.7649 38.8511 33.7032 39.0022 33.6558 39.1438C33.4565 39.6819 33.3829 40.1303 33.4351 40.4891C33.4873 40.8478 33.651 41.0272 33.9262 41.0272C34.173 41.0272 34.4127 40.8785 34.6452 40.5811C34.8777 40.2837 35.0319 39.9557 35.1079 39.5969ZM40.176 38.9597C40.0621 39.4506 40.0526 39.8683 40.1475 40.2129C40.2424 40.5575 40.4227 40.7298 40.6885 40.7298C41.0207 40.7298 41.4074 40.4277 41.8487 39.8235C42.2901 39.2193 42.5772 38.6057 42.71 37.9826C42.748 37.7655 42.7978 37.6192 42.8595 37.5436C42.9212 37.4681 42.9948 37.4303 43.0802 37.4303C43.1466 37.4303 43.2036 37.4657 43.251 37.5365C43.2985 37.6073 43.3222 37.6947 43.3222 37.7985C43.3222 38.3838 43.0209 39.1225 42.4182 40.0147C41.8155 40.9068 41.22 41.3529 40.6315 41.3529C40.2424 41.3529 39.9435 41.2089 39.7347 40.921C39.5259 40.633 39.4215 40.22 39.4215 39.6819C39.4215 38.7945 39.6516 37.9118 40.1119 37.0338C40.5722 36.1559 41.0396 35.7169 41.5142 35.7169C41.7135 35.7263 41.8867 35.8137 42.0338 35.9789C42.1809 36.1441 42.2592 36.3777 42.2687 36.6798C42.2592 37.3784 42.0457 37.9685 41.6281 38.4499C41.2105 38.9314 40.7265 39.1013 40.176 38.9597ZM41.4145 36.3966C41.2437 36.3966 41.0468 36.6067 40.8237 37.0268C40.6007 37.4469 40.4322 37.8835 40.3183 38.3366C40.66 38.5066 40.9661 38.4027 41.2366 38.0251C41.5071 37.6475 41.6423 37.2274 41.6423 36.7648C41.6423 36.6515 41.6186 36.5642 41.5711 36.5028C41.5237 36.4415 41.4715 36.4061 41.4145 36.3966ZM53.4442 38.7756L54.64 36.9772C54.9722 36.4674 55.3305 35.9623 55.7149 35.462C56.0993 34.9617 56.4148 34.5793 56.6616 34.315C56.8324 34.1356 57.0128 33.9964 57.2026 33.8973C57.3924 33.7981 57.5727 33.7438 57.7435 33.7344C57.9713 33.7344 58.1232 33.8312 58.1991 34.0247C58.275 34.2182 58.2655 34.5132 58.1706 34.9097C58.0473 35.4101 57.8883 36.0332 57.6937 36.779C57.4992 37.5247 57.3402 38.2045 57.2168 38.8181C57.1029 39.3468 57.046 39.7551 57.046 40.043C57.046 40.3309 57.1029 40.5315 57.2168 40.6448C57.3117 40.7581 57.4636 40.8171 57.6724 40.8218C57.8812 40.8265 57.9856 40.8903 57.9856 41.013C57.9856 41.1829 57.8788 41.3104 57.6652 41.3953C57.4517 41.4803 57.2168 41.4473 56.9606 41.2962C56.7043 41.1452 56.5358 40.9068 56.4552 40.5811C56.3745 40.2554 56.3911 39.7385 56.505 39.0305C56.5524 38.7001 56.6497 38.195 56.7968 37.5153C56.9439 36.8356 57.065 36.3164 57.1599 35.9576C57.2643 35.5517 57.3307 35.2779 57.3592 35.1363C57.3876 34.9947 57.4019 34.8861 57.4019 34.8106C57.4114 34.7351 57.4137 34.6926 57.409 34.6832C57.4043 34.6737 57.4019 34.669 57.4019 34.669C57.3354 34.669 57.2548 34.7044 57.1599 34.7752C57.065 34.846 56.9653 34.9381 56.8609 35.0513C56.5572 35.3629 56.1776 35.8325 55.722 36.4603C55.2664 37.0881 54.8441 37.7183 54.455 38.3508C54.1608 38.8134 53.895 39.2594 53.6577 39.689C53.4205 40.1185 53.2496 40.4088 53.1452 40.5599C52.9459 40.8525 52.7063 40.9823 52.4263 40.9493C52.1463 40.9162 52.0633 40.6826 52.1772 40.2483C52.2056 40.1162 52.3646 39.7126 52.6541 39.0376C52.9436 38.3626 53.2686 37.5625 53.6293 36.6373C53.876 35.986 54.1133 35.2992 54.3411 34.577C54.5689 33.8548 54.7112 33.3143 54.7682 32.9556C54.8726 32.2287 54.8132 31.7 54.5902 31.3696C54.3672 31.0392 53.9947 30.8739 53.4727 30.8739C52.5141 30.8739 51.3325 31.4663 49.9278 32.6511C48.5232 33.8359 47.8209 35.0136 47.8209 36.1842C47.8209 36.7129 48.0059 37.133 48.3761 37.4445C48.7462 37.756 49.2255 37.9071 49.8139 37.8976C50.0227 37.8976 50.2624 37.8717 50.5329 37.8198C50.8034 37.7678 51.0478 37.6947 51.266 37.6003C51.4654 37.5153 51.6267 37.4728 51.7501 37.4728C51.8735 37.4728 51.9352 37.52 51.9352 37.6144C51.9257 37.8316 51.8924 37.9708 51.8355 38.0322C51.7786 38.0935 51.6979 38.1431 51.5935 38.1809C51.3277 38.2941 51.0454 38.3791 50.7464 38.4358C50.4475 38.4924 50.1604 38.516 49.8851 38.5066C48.8127 38.516 48.0154 38.2281 47.4934 37.6428C46.9714 37.0574 46.8433 36.2928 47.1091 35.3487C47.3558 34.4802 47.9632 33.5716 48.9313 32.6228C49.8994 31.674 50.9339 30.9778 52.0348 30.5341C53.3445 30.0149 54.3079 30.0479 54.9248 30.6332C55.5417 31.2185 55.6508 32.29 55.2522 33.8477C55.1383 34.2536 55.0268 34.6242 54.9176 34.9593C54.8085 35.2944 54.4787 36.1606 53.9282 37.5578L53.4442 38.7756ZM59.822 40.7723L59.7793 40.7298C59.5231 41.6266 59.3333 42.3512 59.2099 42.9034C59.0865 43.4557 59.0248 43.864 59.0248 44.1283C59.0248 44.1661 59.0319 44.2275 59.0462 44.3124C59.0604 44.3974 59.0723 44.4635 59.0818 44.5107C59.0818 44.6523 59.0367 44.7727 58.9465 44.8718C58.8564 44.9709 58.7496 45.0205 58.6262 45.0205C58.4933 45.0205 58.3866 44.9733 58.3059 44.8789C58.2252 44.7845 58.1849 44.6617 58.1849 44.5107C58.1849 44.2275 58.3438 43.4911 58.6618 42.3016C58.9797 41.1121 59.2906 40.0312 59.5943 39.0588C60.1447 37.3029 60.4935 36.2762 60.6406 35.9789C60.7877 35.6815 60.9562 35.5328 61.146 35.5328C61.2504 35.5328 61.3335 35.5635 61.3952 35.6249C61.4568 35.6862 61.4877 35.7735 61.4877 35.8868C61.4877 35.9907 61.4236 36.1535 61.2955 36.3754C61.1674 36.5972 61.0748 36.8167 61.0179 37.0338C61.3596 36.6185 61.6917 36.2975 62.0144 36.0709C62.3371 35.8443 62.6361 35.7263 62.9113 35.7169C63.253 35.7169 63.5472 35.8986 63.794 36.2621C64.0407 36.6255 64.1641 37.1283 64.1641 37.7702C64.1641 38.7709 63.8984 39.6607 63.3669 40.4395C62.8354 41.2183 62.2327 41.6077 61.5589 41.6077C61.3311 41.6077 61.0535 41.5346 60.7261 41.3883C60.3986 41.2419 60.0973 41.0366 59.822 40.7723ZM62.7832 36.3258C62.5459 36.3258 62.2517 36.5028 61.9005 36.8568C61.5494 37.2109 61.1887 37.6994 60.8186 38.3225C60.6477 38.6151 60.4935 38.9007 60.3559 39.1792C60.2183 39.4577 60.0925 39.748 59.9786 40.0501C60.178 40.2955 60.4484 40.5127 60.7901 40.7015C61.1318 40.8903 61.4165 40.9847 61.6443 40.9847C62.0809 40.9847 62.4985 40.6873 62.8971 40.0926C63.2957 39.4978 63.495 38.7709 63.495 37.9118C63.495 37.4398 63.4215 37.0574 63.2743 36.7648C63.1272 36.4721 62.9635 36.3258 62.7832 36.3258ZM67.5666 39.9226C67.2819 40.3569 66.9592 40.7274 66.5985 41.0342C66.2379 41.3411 65.9294 41.4945 65.6732 41.4945C65.4739 41.4945 65.3101 41.393 65.182 41.19C65.0539 40.987 64.9898 40.7156 64.9898 40.3758C64.9898 39.5733 65.1868 38.6812 65.5806 37.6994C65.9745 36.7176 66.3707 36.2267 66.7694 36.2267C66.8738 36.2361 66.9568 36.2715 67.0185 36.3329C67.0802 36.3943 67.111 36.4769 67.111 36.5807C67.111 36.7034 66.9924 36.8875 66.7551 37.133C66.5179 37.3784 66.3375 37.6428 66.2141 37.926C66.0338 38.3319 65.8891 38.7426 65.7799 39.1579C65.6708 39.5733 65.6162 39.9132 65.6162 40.1775C65.6162 40.3758 65.6399 40.5363 65.6874 40.659C65.7348 40.7817 65.7918 40.8431 65.8582 40.8431C66.0481 40.8431 66.3707 40.5268 66.8263 39.8943C67.2819 39.2618 67.5998 38.7378 67.7801 38.3225C68.1598 37.4067 68.352 36.9465 68.3567 36.9418C68.3614 36.9371 68.3923 36.9347 68.4492 36.9347C68.5726 36.9347 68.6604 36.963 68.7126 37.0197C68.7648 37.0763 68.7956 37.1802 68.8051 37.3312C68.8051 37.4067 68.7862 37.5106 68.7482 37.6428C68.7102 37.7749 68.6438 37.959 68.5489 38.195C67.8181 41.8862 67.2795 43.9419 66.9331 44.362C66.5867 44.7821 66.143 44.9921 65.602 44.9921C65.1464 44.9827 64.7739 44.7561 64.4844 44.3124C64.195 43.8687 64.0502 43.2976 64.0502 42.599C64.0597 42.3913 64.1024 42.2308 64.1784 42.1175C64.2543 42.0042 64.3539 41.9523 64.4773 41.9618C64.6576 41.9618 64.7715 42.0467 64.819 42.2167C64.8664 42.3866 64.8142 42.5471 64.6624 42.6981C64.577 43.1229 64.6387 43.51 64.8475 43.8593C65.0563 44.2086 65.3078 44.3832 65.602 44.3832C66.124 44.3832 66.5867 43.9041 66.99 42.9459C67.3934 41.9877 67.5856 40.98 67.5666 39.9226ZM72.6916 40.0076C72.3689 40.4702 72.0225 40.8289 71.6524 41.0838C71.2823 41.3387 70.9311 41.4661 70.5989 41.4661C70.2572 41.4661 69.9915 41.3411 69.8017 41.0909C69.6119 40.8407 69.517 40.5079 69.517 40.0926C69.517 39.1485 69.8373 38.2186 70.4779 37.3029C71.1185 36.3872 71.7995 35.9293 72.5208 35.9293C73.0143 35.9293 73.3679 36.1394 73.5814 36.5595C73.795 36.9796 73.8353 37.5295 73.7024 38.2092C73.7024 38.2564 73.7024 38.2965 73.7024 38.3295C73.7024 38.3626 73.5743 39.0541 73.318 40.4041C72.9479 42.2733 72.5683 43.4675 72.1791 43.9867C71.79 44.506 71.249 44.7656 70.5562 44.7656C70.0722 44.7656 69.6617 44.6263 69.3248 44.3478C68.9878 44.0693 68.8194 43.6799 68.8194 43.1796C68.8194 42.9152 68.855 42.7076 68.9261 42.5565C68.9973 42.4055 69.0851 42.3299 69.1895 42.3299C69.2749 42.3299 69.3509 42.3488 69.4173 42.3866C69.4837 42.4243 69.517 42.481 69.517 42.5565C69.517 42.6132 69.5122 42.6745 69.5027 42.7406C69.4932 42.8067 69.479 42.8916 69.46 42.9955C69.441 43.0616 69.4315 43.1277 69.4315 43.1937C69.4315 43.2598 69.441 43.3306 69.46 43.4061C69.5075 43.6327 69.6237 43.831 69.8088 44.0009C69.9939 44.1708 70.2288 44.2558 70.5135 44.2558C71.1304 44.2558 71.6192 43.9207 71.9798 43.2504C72.3405 42.5801 72.5778 41.4992 72.6916 40.0076ZM72.4639 36.5665C71.9893 36.5665 71.4744 36.9866 70.9192 37.8268C70.364 38.667 70.0864 39.4459 70.0864 40.1634C70.0864 40.4277 70.1339 40.6283 70.2288 40.7652C70.3237 40.9021 70.4518 40.9705 70.6131 40.9705C70.9358 40.9705 71.3155 40.7439 71.7521 40.2908C72.1886 39.8377 72.4496 39.4128 72.535 39.0163C72.592 38.6954 72.6561 38.4924 72.7272 38.4074C72.7984 38.3225 72.891 38.2517 73.0048 38.195C73.0333 38.044 73.057 37.8906 73.076 37.7348C73.095 37.579 73.1092 37.4539 73.1187 37.3595C73.1187 37.0952 73.0665 36.8993 72.9621 36.7719C72.8577 36.6444 72.6916 36.576 72.4639 36.5665ZM76.6493 39.5969C76.45 39.663 76.2744 39.637 76.1226 39.519C75.9707 39.401 75.8948 39.2476 75.8948 39.0588C75.8948 38.8795 75.9565 38.7355 76.0799 38.6269C76.2033 38.5184 76.3646 38.4594 76.5639 38.4499C76.6873 38.4499 76.8059 38.4853 76.9198 38.5561C77.0337 38.6269 77.1239 38.7237 77.1903 38.8464C77.3611 38.8559 77.5272 38.8441 77.6886 38.811C77.8499 38.778 78.0113 38.7142 78.1726 38.6198C78.2675 38.2989 78.3743 38.0204 78.4929 37.7844C78.6116 37.5483 78.7278 37.3926 78.8417 37.3171C79.0031 37.2132 79.1549 37.1967 79.2973 37.2675C79.4396 37.3383 79.5108 37.4681 79.5108 37.6569C79.5013 37.808 79.4396 37.9803 79.3258 38.1738C79.2119 38.3673 79.0695 38.5302 78.8987 38.6623C78.7563 38.9172 78.6448 39.1792 78.5641 39.4482C78.4834 39.7173 78.4431 39.9462 78.4431 40.135C78.4336 40.305 78.4502 40.4324 78.4929 40.5174C78.5356 40.6023 78.595 40.6448 78.6709 40.6448C78.7088 40.6448 78.761 40.6141 78.8275 40.5528C78.8939 40.4914 78.9793 40.3899 79.0837 40.2483C79.2261 40.0595 79.3613 39.8613 79.4895 39.6536C79.6176 39.4459 79.7861 39.1013 79.9949 38.6198C80.0708 38.4499 80.1396 38.3295 80.2013 38.2587C80.263 38.1879 80.3318 38.1525 80.4077 38.1525C80.5121 38.1525 80.5857 38.195 80.6284 38.28C80.6711 38.365 80.6687 38.4924 80.6212 38.6623C80.5263 38.9644 80.346 39.3161 80.0803 39.7173C79.8145 40.1185 79.5298 40.4749 79.2261 40.7864C79.0553 40.9658 78.9034 41.0932 78.7705 41.1688C78.6377 41.2443 78.5095 41.2821 78.3862 41.2821C78.2533 41.2821 78.1346 41.1947 78.0302 41.0201C77.9258 40.8454 77.8736 40.5882 77.8736 40.2483C77.8736 40.0595 77.8831 39.8872 77.9021 39.7315C77.9211 39.5757 77.9543 39.4176 78.0018 39.2571C77.8784 39.3043 77.755 39.3397 77.6316 39.3633C77.5082 39.3869 77.3896 39.4034 77.2757 39.4128C77.1998 40.017 76.953 40.5268 76.5354 40.9422C76.1178 41.3576 75.7192 41.5653 75.3396 41.5653C74.903 41.5653 74.6183 41.3245 74.4854 40.8431C74.3525 40.3616 74.3905 39.7574 74.5993 39.0305C74.7132 38.6246 74.8864 38.1856 75.1189 37.7136C75.3515 37.2415 75.5769 36.8545 75.7952 36.5524C75.8901 36.4297 75.9826 36.3423 76.0728 36.2904C76.1629 36.2385 76.265 36.2125 76.3788 36.2125C76.5307 36.2125 76.6232 36.2786 76.6564 36.4108C76.6897 36.5429 76.6493 36.6987 76.5354 36.8781C75.8426 37.926 75.4582 38.5302 75.3823 38.6906C75.3064 38.8511 75.2447 39.0022 75.1972 39.1438C74.9979 39.6819 74.9244 40.1303 74.9766 40.4891C75.0288 40.8478 75.1925 41.0272 75.4677 41.0272C75.7145 41.0272 75.9541 40.8785 76.1866 40.5811C76.4192 40.2837 76.5734 39.9557 76.6493 39.5969Z" fill="white"/>
<path fill-rule="evenodd" clip-rule="evenodd" d="M28.0132 45.9897H28.3945V46.5462C28.4979 46.347 28.6391 46.1954 28.8192 46.0917C29.0001 45.9879 29.1848 45.9355 29.374 45.9355C29.5975 45.9355 29.7987 45.9732 29.9769 46.0485C30.1551 46.1238 30.301 46.2267 30.4127 46.3571C30.5244 46.4865 30.6093 46.6353 30.6684 46.8034C30.7266 46.9714 30.7561 47.1505 30.7561 47.3424C30.7561 47.5344 30.7266 47.7144 30.6684 47.8824C30.6093 48.0495 30.5244 48.1992 30.4127 48.3287C30.301 48.4591 30.1551 48.562 29.9769 48.6373C29.7987 48.7126 29.5975 48.7502 29.374 48.7502C29.1848 48.7502 29.0001 48.6979 28.8192 48.5941C28.6391 48.4894 28.4979 48.3379 28.3945 48.1395V50.1277H28.0132V45.9897ZM28.8367 48.2791C28.9872 48.3811 29.1663 48.4325 29.374 48.4325C29.5808 48.4325 29.7599 48.3811 29.9104 48.2773C30.0609 48.1744 30.1726 48.0422 30.2446 47.8806C30.3167 47.7199 30.3527 47.5399 30.3527 47.3424C30.3527 47.1459 30.3167 46.9659 30.2446 46.8043C30.1726 46.6436 30.0609 46.5113 29.9104 46.4076C29.7599 46.3047 29.5808 46.2533 29.374 46.2533C29.1663 46.2533 28.9872 46.3038 28.8367 46.4067C28.6862 46.5086 28.5754 46.6408 28.5025 46.8034C28.4305 46.9659 28.3945 47.1459 28.3945 47.3424C28.3945 47.5399 28.4305 47.7199 28.5025 47.8824C28.5754 48.045 28.6862 48.1772 28.8367 48.2791ZM32.6063 48.4325C32.9359 48.4325 33.2341 48.3214 33.4991 48.0991L33.7372 48.3324C33.4667 48.6107 33.0891 48.7502 32.6063 48.7502C32.3376 48.7502 32.104 48.6887 31.9046 48.5666C31.7052 48.4454 31.5538 48.2782 31.4513 48.0661C31.3488 47.8549 31.2971 47.6133 31.2971 47.3424C31.2971 47.0715 31.3488 46.8309 31.4513 46.6188C31.5538 46.4076 31.7052 46.2404 31.9046 46.1183C32.104 45.9962 32.3376 45.9355 32.6063 45.9355C33.0051 45.9355 33.3227 46.0687 33.56 46.335C33.7963 46.6013 33.9154 46.9907 33.9154 47.5013H31.6997C31.7071 47.7722 31.7929 47.9954 31.9554 48.1699C32.1188 48.3453 32.3358 48.4325 32.6063 48.4325ZM31.6997 47.1836H33.512C33.4889 46.9081 33.3993 46.684 33.2433 46.5113C33.0873 46.3396 32.8749 46.2533 32.6063 46.2533C32.3376 46.2533 32.1253 46.3396 31.9693 46.5113C31.8132 46.684 31.7237 46.9081 31.6997 47.1836ZM35.1258 46.5582C34.9485 46.762 34.859 47.0238 34.859 47.3424C34.859 47.662 34.9485 47.9237 35.1258 48.1267C35.3031 48.3306 35.5551 48.4325 35.8819 48.4325C36.1903 48.4325 36.458 48.3379 36.6851 48.1496L36.8855 48.4059C36.6325 48.6354 36.2983 48.7502 35.8819 48.7502C35.4489 48.7502 35.1036 48.6189 34.8442 48.3572C34.5857 48.0955 34.4565 47.7575 34.4565 47.3424C34.4565 46.9283 34.5857 46.5903 34.8442 46.3286C35.1036 46.0669 35.4489 45.9355 35.8819 45.9355C36.2965 45.9355 36.6307 46.0513 36.8855 46.2827L36.6851 46.5352C36.458 46.347 36.1903 46.2533 35.8819 46.2533C35.5551 46.2533 35.3031 46.3552 35.1258 46.5582ZM37.3176 46.3066V45.9897H39.7115V46.3066H38.7052V48.6961H38.3239V46.3066H37.3176ZM40.5867 46.3286C40.8462 46.0669 41.1914 45.9355 41.6244 45.9355C42.0574 45.9355 42.4027 46.0669 42.6612 46.3286C42.9207 46.5903 43.0499 46.9283 43.0499 47.3424C43.0499 47.7575 42.9207 48.0955 42.6612 48.3572C42.4027 48.6189 42.0574 48.7502 41.6244 48.7502C41.1914 48.7502 40.8462 48.6189 40.5867 48.3572C40.3282 48.0955 40.199 47.7575 40.199 47.3424C40.199 46.9283 40.3282 46.5903 40.5867 46.3286ZM42.3806 46.5582C42.2024 46.3552 41.9504 46.2533 41.6244 46.2533C41.2976 46.2533 41.0456 46.3552 40.8683 46.5582C40.6911 46.762 40.6015 47.0238 40.6015 47.3424C40.6015 47.662 40.6911 47.9237 40.8683 48.1267C41.0456 48.3306 41.2976 48.4325 41.6244 48.4325C41.9504 48.4325 42.2024 48.3306 42.3806 48.1267C42.5578 47.9237 42.6465 47.662 42.6465 47.3424C42.6465 47.0238 42.5578 46.762 42.3806 46.5582ZM43.699 45.9897H44.0802V46.5462C44.1837 46.347 44.3249 46.1954 44.5049 46.0917C44.6859 45.9879 44.8705 45.9355 45.0598 45.9355C45.2832 45.9355 45.4845 45.9732 45.6627 46.0485C45.8409 46.1238 45.9867 46.2267 46.0985 46.3571C46.2102 46.4865 46.2951 46.6353 46.3542 46.8034C46.4123 46.9714 46.4419 47.1505 46.4419 47.3424C46.4419 47.5344 46.4123 47.7144 46.3542 47.8824C46.2951 48.0495 46.2102 48.1992 46.0985 48.3287C45.9867 48.4591 45.8409 48.562 45.6627 48.6373C45.4845 48.7126 45.2832 48.7502 45.0598 48.7502C44.8705 48.7502 44.6859 48.6979 44.5049 48.5941C44.3249 48.4894 44.1837 48.3379 44.0802 48.1395V50.1277H43.699V45.9897ZM44.5225 48.2791C44.673 48.3811 44.8521 48.4325 45.0598 48.4325C45.2666 48.4325 45.4457 48.3811 45.5962 48.2773C45.7467 48.1744 45.8584 48.0422 45.9304 47.8806C46.0024 47.7199 46.0384 47.5399 46.0384 47.3424C46.0384 47.1459 46.0024 46.9659 45.9304 46.8043C45.8584 46.6436 45.7467 46.5113 45.5962 46.4076C45.4457 46.3047 45.2666 46.2533 45.0598 46.2533C44.8521 46.2533 44.673 46.3038 44.5225 46.4067C44.372 46.5086 44.2612 46.6408 44.1883 46.8034C44.1163 46.9659 44.0802 47.1459 44.0802 47.3424C44.0802 47.5399 44.1163 47.7199 44.1883 47.8824C44.2612 48.045 44.372 48.1772 44.5225 48.2791ZM48.281 46.2533C48.1443 46.2533 47.9929 46.2744 47.8267 46.3167C47.6606 46.3589 47.5175 46.414 47.3965 46.482L47.2423 46.1964C47.3725 46.1137 47.5285 46.0503 47.7123 46.0044C47.8951 45.9585 48.0843 45.9355 48.281 45.9355C48.4684 45.9355 48.629 45.9558 48.7629 45.9952C48.8959 46.0347 49.0011 46.0862 49.0777 46.1495C49.1544 46.2129 49.2144 46.2983 49.2578 46.4039C49.3012 46.5095 49.3289 46.6151 49.3418 46.7198C49.3538 46.8245 49.3602 46.9531 49.3602 47.1037V48.6961H48.9789V48.1772C48.8183 48.5592 48.5053 48.7502 48.0409 48.7502C47.716 48.7502 47.4584 48.6759 47.2682 48.528C47.078 48.3801 46.9829 48.1625 46.9829 47.8751C46.9829 47.7263 47.0134 47.595 47.0752 47.4802C47.1362 47.3654 47.2202 47.2736 47.3264 47.2056C47.4325 47.1376 47.5516 47.0816 47.6836 47.0385C47.8147 46.9953 47.9578 46.9678 48.112 46.954C48.2662 46.9402 48.4139 46.9347 48.5543 46.9374C48.6946 46.9402 48.8368 46.9512 48.9789 46.9687C48.9771 46.886 48.9734 46.8181 48.9679 46.763C48.9633 46.7079 48.9512 46.6509 48.9346 46.5912C48.9171 46.5306 48.8931 46.482 48.8617 46.4452C48.8294 46.4085 48.7897 46.3745 48.7398 46.3433C48.69 46.3121 48.6272 46.2891 48.5506 46.2744C48.4739 46.2606 48.3844 46.2533 48.281 46.2533ZM47.3808 47.8751C47.3808 48.0422 47.4353 48.1772 47.5442 48.2791C47.6532 48.3811 47.8184 48.4325 48.0409 48.4325C48.197 48.4325 48.3364 48.4077 48.4582 48.3581C48.5801 48.3094 48.678 48.2424 48.7528 48.1579C48.8285 48.0734 48.8848 47.9788 48.9226 47.8741C48.9605 47.7695 48.9789 47.6574 48.9789 47.539V47.2515C48.8635 47.2387 48.7481 47.2313 48.6318 47.2295C48.5155 47.2276 48.3955 47.2322 48.2727 47.2414C48.1508 47.2515 48.0372 47.2717 47.932 47.302C47.8277 47.3332 47.7335 47.3718 47.6495 47.4196C47.5655 47.4673 47.4999 47.5298 47.4519 47.6078C47.4048 47.6859 47.3808 47.775 47.3808 47.8751ZM52.1789 47.1303V45.9897H52.5602V48.6961H52.1789V47.448H50.4986V48.6961H50.1173V45.9897H50.4986V47.1303H52.1789Z" fill="white"/>
<path fill-rule="evenodd" clip-rule="evenodd" d="M33.0937 17.6325C33.14 23.1995 31.905 23.6007 31.2772 24.5945C30.1743 26.3405 34.8681 23.5373 35.7207 22.3801C37.4276 20.0628 39.3442 18.4788 41.9418 17.0432C43.3275 16.2774 44.5462 15.9721 46.3305 15.6845C48.1773 15.3868 49.7097 14.4308 50.9793 13.1434C53.2301 11.0292 55.8923 5.40651 56.711 2.30776C56.7492 2.16301 56.7416 2.04006 56.6365 1.92224C56.5205 1.79239 56.3481 1.7618 56.1934 1.83801C56.131 1.86876 56.0812 1.90458 56.0441 1.94548C55.7443 2.25891 55.4186 2.59067 55.076 2.85751C51.6641 5.38119 47.6456 7.44855 43.2464 7.95338C40.4672 8.2723 38.4108 9.00412 36.4048 10.7388C34.7407 12.1778 33.3024 14.5061 33.0937 17.6325Z" fill="white"/>
<path fill-rule="evenodd" clip-rule="evenodd" d="M39.482 24.2996C43.5084 24.8559 47.732 25.6685 50.1843 21.6555C50.667 20.8657 53.4037 15.1997 52.8262 14.6764C52.7205 14.5804 52.5772 14.5701 52.4577 14.6453C52.4094 14.6757 52.3719 14.7092 52.3452 14.7457C52.0155 15.1717 51.7007 15.6976 51.2751 16.0315C49.7249 17.0864 48.2093 17.7844 46.2059 18.047C45.1478 18.1857 44.2866 18.1091 43.23 18.3627C39.2765 18.5397 35.6888 23.5431 34.2525 24.8618C32.4615 26.5061 36.7931 23.8083 39.482 24.2996Z" fill="white"/>
<path fill-rule="evenodd" clip-rule="evenodd" d="M36.0364 26.2141C36.1799 26.2297 36.3494 26.2493 36.5447 26.2731C36.6031 26.2802 36.6588 26.2871 36.712 26.2939C37.8336 26.4798 38.8547 26.5895 39.8759 27.027C41.2754 27.6266 42.5917 28.1979 44.1901 28.5758C46.7375 29.1781 50.3781 27.823 51.4935 25.4616C51.5194 25.407 51.5123 25.2814 51.4905 25.2345C51.4386 25.1513 51.3456 25.117 51.2516 25.1436C51.2132 25.1544 51.1814 25.1695 51.1563 25.1886C50.0647 25.9753 49.4344 26.228 48.0317 26.4167C47.1942 26.5293 46.3872 26.5509 45.6109 26.5115C42.8663 26.3031 41.1011 25.3355 39.1153 25.2539C38.5721 25.2316 37.3874 25.3332 36.4274 25.493C36.3686 25.5022 36.3098 25.5118 36.2508 25.5215C35.0377 25.7232 34.6107 26.0964 36.0364 26.2141Z" fill="white"/>
<path fill-rule="evenodd" clip-rule="evenodd" d="M34.312 8.09554C36.6308 1.60887 26.9053 1.8872 25.6375 5.75781C25.5076 6.15429 25.0917 7.33715 26.6237 7.90636C26.6226 8.3755 26.8405 9.00305 26.2814 10.2928C25.8679 11.2466 26.2851 11.506 27.3644 9.99965C28.8734 7.89335 30.3789 5.19757 31.6859 6.13081C33.2258 7.23035 29.351 13.1272 27.8402 15.4611C24.7544 20.2176 24.5376 25.9191 29.3553 27.9815C30.7494 28.5782 37.2497 28.5198 40.3113 28.508C37.1161 25.8652 31.6759 28.3546 29.5524 24.0784C29.2735 23.517 28.9746 22.8107 29.0047 21.6221C29.1203 17.0642 31.9932 14.5822 34.312 8.09554Z" fill="white"/>
<path fill-rule="evenodd" clip-rule="evenodd" d="M25.7429 4.15805L23.9307 2.91634C24.3323 2.63542 24.839 2.546 25.441 2.63107C25.2805 2.07186 25.4789 1.39338 25.7289 0.633294C26.5065 0.836223 27.1873 1.038 27.5729 1.47519C27.8272 0.925842 28.1773 0.550693 28.6323 0.367188L28.6995 2.55505C27.2798 3.09615 26.9694 3.26447 25.7429 4.15805Z" fill="white"/>
</svg>
