<svg width="19" height="16" viewBox="0 0 19 16" fill="none" xmlns="http://www.w3.org/2000/svg">
<path fill-rule="evenodd" clip-rule="evenodd" d="M5.91963 9.40592C5.94472 12.3267 5.27599 12.5372 4.93605 13.0586C4.33887 13.9746 6.88047 12.504 7.34211 11.8968C8.26638 10.681 9.3042 9.84996 10.7108 9.09676C11.4611 8.69497 12.121 8.53479 13.0871 8.38392C14.0872 8.22773 14.9169 7.72615 15.6044 7.05069C16.8232 5.94144 18.2647 2.99148 18.708 1.36569C18.7287 1.28975 18.7246 1.22524 18.6677 1.16343C18.6049 1.0953 18.5115 1.07925 18.4277 1.11924C18.3939 1.13537 18.367 1.15416 18.3469 1.17562C18.1846 1.34006 18.0082 1.51413 17.8227 1.65412C15.9752 2.9782 13.7992 4.06285 11.4171 4.32771C9.91229 4.49503 8.79876 4.87899 7.71258 5.78909C6.8115 6.5441 6.03268 7.76564 5.91963 9.40592Z" fill="white" fill-opacity="0.8"/>
<path fill-rule="evenodd" clip-rule="evenodd" d="M9.37822 12.9018C11.5585 13.1936 13.8455 13.62 15.1734 11.5145C15.4347 11.1001 16.9166 8.12743 16.6039 7.85287C16.5467 7.80251 16.4691 7.7971 16.4044 7.83659C16.3782 7.85254 16.3579 7.8701 16.3434 7.88924C16.1649 8.11275 15.9944 8.38868 15.764 8.56383C14.9246 9.11733 14.1039 9.48354 13.0191 9.62131C12.4462 9.69408 11.9799 9.65389 11.4077 9.78694C9.26695 9.87982 7.32428 12.5049 6.54654 13.1967C5.57675 14.0594 7.92228 12.644 9.37822 12.9018Z" fill="white" fill-opacity="0.8"/>
<path fill-rule="evenodd" clip-rule="evenodd" d="M7.51293 13.9061C7.59064 13.9143 7.68239 13.9246 7.78813 13.9371C7.81976 13.9408 7.84995 13.9444 7.87874 13.948C8.48605 14.0455 9.03899 14.1031 9.59193 14.3326C10.3498 14.6472 11.0625 14.947 11.928 15.1452C13.3074 15.4612 15.2787 14.7502 15.8827 13.5113C15.8967 13.4827 15.8928 13.4168 15.8811 13.3922C15.8529 13.3485 15.8026 13.3305 15.7517 13.3445C15.7309 13.3502 15.7137 13.3581 15.7001 13.3681C15.109 13.7809 14.7677 13.9134 14.0081 14.0124C13.5547 14.0715 13.1177 14.0828 12.6974 14.0622C11.2112 13.9528 10.2554 13.4452 9.18008 13.4023C8.88597 13.3906 8.24447 13.4439 7.72461 13.5278C7.69282 13.5326 7.66096 13.5376 7.62904 13.5428C6.97213 13.6486 6.74091 13.8444 7.51293 13.9061Z" fill="white" fill-opacity="0.8"/>
<path fill-rule="evenodd" clip-rule="evenodd" d="M6.57919 4.39988C7.83477 0.9966 2.56857 1.14263 1.8821 3.17337C1.81178 3.38139 1.58656 4.00198 2.41613 4.30062C2.41553 4.54676 2.53351 4.87601 2.23076 5.55268C2.00687 6.05308 2.2328 6.18919 2.81718 5.39888C3.6343 4.2938 4.44947 2.87944 5.15719 3.36907C5.99106 3.94595 3.89289 7.03977 3.07485 8.2643C1.40392 10.7598 1.28652 13.7511 3.89521 14.8332C4.65013 15.1462 8.16989 15.1156 9.82771 15.1094C8.09758 13.7229 5.1518 15.0289 4.00194 12.7854C3.85096 12.4908 3.68909 12.1203 3.70539 11.4967C3.76798 9.10534 5.3236 7.80315 6.57919 4.39988Z" fill="white" fill-opacity="0.8"/>
<path fill-rule="evenodd" clip-rule="evenodd" d="M1.93832 2.33461L0.957031 1.68313C1.17449 1.53575 1.44887 1.48883 1.77483 1.53346C1.68794 1.24007 1.79538 0.884103 1.93073 0.485318C2.35183 0.591786 2.72046 0.69765 2.92922 0.927023C3.06694 0.638805 3.25653 0.44198 3.5029 0.345703L3.53925 1.49358C2.77054 1.77747 2.60244 1.86578 1.93832 2.33461Z" fill="white" fill-opacity="0.8"/>
</svg>
