<svg width="967" height="603" viewBox="0 0 967 603" fill="none" xmlns="http://www.w3.org/2000/svg">
<path fill-rule="evenodd" clip-rule="evenodd" d="M682.91 292.339C691.463 442.837 725.347 451.517 743.962 477.271C776.663 522.514 645.632 454.99 620.692 425.214C570.757 365.587 516.48 326.144 444.169 291.901C405.595 273.633 372.319 267.517 323.876 262.869C273.738 258.057 230.888 234.908 194.515 202.344C130.327 149.158 48.9114 1.89551 21.4649 -80.3983C20.184 -84.2423 20.1698 -87.5777 22.7872 -90.945C25.6745 -94.6564 30.252 -95.7846 34.5419 -93.9962C36.2732 -93.2745 37.6731 -92.3939 38.7415 -91.3536C47.3479 -83.4097 56.6833 -75.0157 66.3562 -68.4054C162.457 -6.1873 274.052 42.6393 393.125 48.5816C468.347 52.3354 524.881 68.5101 581.823 111.87C629.062 147.84 671.799 208.231 682.91 292.339Z" stroke="white" stroke-opacity="0.05" stroke-width="40"/>
<path fill-rule="evenodd" clip-rule="evenodd" d="M510.221 502.103C402.921 524.206 290.772 553.587 217.752 449.32C203.382 428.8 119.801 280.315 134.409 265.147C137.082 262.365 140.918 261.835 144.264 263.662C145.617 264.399 146.683 265.239 147.465 266.18C157.084 277.127 166.476 290.803 178.51 299.088C222.056 324.912 264.044 341.14 318.382 344.734C347.082 346.633 370.105 343.052 398.968 348.062C505.598 345.925 610.895 474.994 651.844 508.152C702.905 549.497 581.663 484.102 510.221 502.103Z" stroke="white" stroke-opacity="0.05" stroke-width="40"/>
<path fill-rule="evenodd" clip-rule="evenodd" d="M562.974 570.672C559.142 571.343 554.62 572.171 549.411 573.154C547.853 573.448 546.366 573.732 544.948 574.006C515.116 580.986 487.85 585.732 461.16 599.316C424.58 617.934 390.19 635.644 347.873 648.633C280.432 669.334 180.159 639.172 146.018 577.457C145.227 576.03 145.198 572.63 145.7 571.329C146.951 568.992 149.39 567.906 151.967 568.458C153.018 568.683 153.898 569.033 154.607 569.505C185.342 588.805 202.733 594.515 240.784 597.146C263.5 598.715 285.238 597.884 306.042 595.461C379.478 585.036 425.244 555.854 478.498 550.175C493.064 548.622 525.099 549.286 551.195 551.913C552.79 552.06 554.389 552.214 555.991 552.375C588.967 555.688 601.105 565.002 562.974 570.672Z" stroke="white" stroke-opacity="0.05" stroke-width="40"/>
<path fill-rule="evenodd" clip-rule="evenodd" d="M687.213 77.0661C613.469 -94.1956 875.361 -103.7 916.251 -1.30468C920.439 9.18389 933.701 40.4261 893.525 58.4929C894.381 71.1707 889.63 88.5135 906.928 122.394C919.721 147.448 908.963 155.191 877.303 116.367C833.035 62.0799 787.826 -8.14592 754.339 19.3658C714.883 51.7804 829.413 204.376 874.128 264.813C965.443 387.969 981.308 541.688 855.449 605.864C819.027 624.433 644.211 634.235 561.9 639.276C643.127 562.254 793.732 620.011 843.28 500.718C849.786 485.055 856.578 465.441 853.676 433.37C842.545 310.381 760.958 248.328 687.213 77.0661Z" stroke="white" stroke-opacity="0.05" stroke-width="40"/>
</svg>
