<svg width="364" height="309" viewBox="0 0 364 309" fill="none" xmlns="http://www.w3.org/2000/svg">
    <path fill-rule="evenodd" clip-rule="evenodd" d="M258.224 164.841C261.475 222.054 274.356 225.354 281.433 235.144C293.864 252.344 244.052 226.674 234.571 215.354C215.588 192.687 194.954 177.693 167.465 164.675C152.801 157.73 140.151 155.405 121.735 153.638C102.675 151.809 86.3851 143.009 72.5574 130.63C48.156 110.41 17.2056 54.4279 6.77169 23.1435C6.28473 21.6821 6.27934 20.4142 7.27439 19.1341C8.37199 17.7232 10.1122 17.2943 11.743 17.9741C12.4011 18.2485 12.9333 18.5833 13.3395 18.9788C16.6113 21.9987 20.1602 25.1897 23.8374 27.7026C60.3706 51.3552 102.794 69.9168 148.06 72.1758C176.656 73.6029 198.148 79.7517 219.795 96.2351C237.753 109.909 254 132.867 258.224 164.841Z" stroke="#2A4B4B" stroke-opacity="0.05" stroke-width="11" />
    <path fill-rule="evenodd" clip-rule="evenodd" d="M192.575 244.581C151.784 252.983 109.15 264.152 81.3913 224.515C75.9283 216.714 44.1546 160.267 49.7081 154.501C50.7243 153.443 52.1824 153.242 53.4545 153.936C53.9688 154.216 54.3743 154.536 54.6715 154.893C58.3281 159.055 61.8985 164.254 66.4732 167.404C83.0277 177.221 98.9896 183.39 119.646 184.756C130.557 185.478 139.309 184.117 150.281 186.021C190.817 185.209 230.847 234.275 246.414 246.88C265.825 262.598 219.734 237.737 192.575 244.581Z" stroke="#2A4B4B" stroke-opacity="0.05" stroke-width="11" />
    <path fill-rule="evenodd" clip-rule="evenodd" d="M212.629 270.65C211.172 270.905 209.453 271.22 207.473 271.594C206.881 271.705 206.315 271.813 205.776 271.917C194.436 274.571 184.07 276.375 173.924 281.539C160.018 288.617 146.944 295.349 130.857 300.287C105.219 308.157 67.1001 296.69 54.1212 273.229C53.8205 272.687 53.8094 271.394 54.0004 270.9C54.4759 270.011 55.403 269.599 56.3825 269.808C56.7823 269.894 57.1168 270.027 57.3863 270.206C69.0703 277.543 75.6817 279.714 90.1468 280.714C98.7824 281.311 107.046 280.995 114.955 280.074C142.872 276.11 160.27 265.017 180.515 262.858C186.052 262.267 198.231 262.52 208.151 263.519C208.758 263.574 209.365 263.633 209.975 263.694C222.51 264.954 227.125 268.494 212.629 270.65Z" stroke="#2A4B4B" stroke-opacity="0.05" stroke-width="11" />
    <path fill-rule="evenodd" clip-rule="evenodd" d="M259.859 83.0019C231.825 17.8958 331.384 14.2827 346.929 53.2088C348.521 57.1961 353.563 69.073 338.29 75.9412C338.615 80.7607 336.809 87.3537 343.385 100.233C348.248 109.758 344.158 112.701 332.123 97.9423C315.294 77.3048 298.107 50.6081 285.377 61.0668C270.378 73.3894 313.917 131.399 330.915 154.375C365.63 201.193 371.661 259.63 323.815 284.027C309.969 291.086 243.511 294.813 212.22 296.729C243.099 267.448 300.352 289.405 319.189 244.055C321.662 238.101 324.244 230.645 323.14 218.453C318.909 171.698 287.893 148.108 259.859 83.0019Z" stroke="#2A4B4B" stroke-opacity="0.05" stroke-width="11" />
</svg>