<svg width="1275" height="1080" viewBox="0 0 1275 1080" fill="none" xmlns="http://www.w3.org/2000/svg">
<path fill-rule="evenodd" clip-rule="evenodd" d="M903.214 575.786C914.617 776.45 959.796 788.024 984.616 822.362C1028.22 882.687 853.509 792.654 820.256 752.953C753.676 673.451 681.306 620.86 584.892 575.202C533.461 550.846 489.092 542.691 424.502 536.494C357.651 530.078 300.518 499.212 252.019 455.794C166.436 384.878 57.8819 188.529 21.2866 78.8036C19.5787 73.6782 19.5598 69.231 23.0498 64.7413C26.8994 59.7928 33.0028 58.2885 38.7227 60.673C41.031 61.6353 42.8975 62.8094 44.322 64.1966C55.7973 74.7884 68.2445 85.9804 81.1417 94.7941C209.276 177.752 358.07 242.854 516.833 250.777C617.129 255.782 692.508 277.348 768.431 335.161C831.415 383.121 888.399 463.643 903.214 575.786Z" stroke="white" stroke-opacity="0.05" stroke-width="40"/>
<path fill-rule="evenodd" clip-rule="evenodd" d="M672.961 855.472C529.895 884.941 380.363 924.116 283.003 785.094C263.842 757.734 152.401 559.754 171.879 539.53C175.443 535.82 180.557 535.114 185.019 537.55C186.823 538.533 188.245 539.653 189.287 540.907C202.112 555.503 214.635 573.737 230.68 584.785C288.742 619.217 344.726 640.854 417.177 645.646C455.442 648.178 486.14 643.404 524.624 650.083C666.797 647.235 807.193 819.326 861.792 863.536C929.873 918.664 768.218 831.47 672.961 855.472Z" stroke="white" stroke-opacity="0.05" stroke-width="40"/>
<path fill-rule="evenodd" clip-rule="evenodd" d="M743.298 946.898C738.189 947.793 732.16 948.896 725.215 950.208C723.137 950.6 721.155 950.978 719.264 951.344C679.488 960.65 643.134 966.978 607.547 985.09C558.773 1009.91 512.921 1033.53 456.497 1050.85C366.576 1078.45 232.879 1038.23 187.358 955.944C186.303 954.041 186.264 949.509 186.934 947.774C188.602 944.658 191.853 943.211 195.289 943.946C196.691 944.246 197.864 944.712 198.81 945.342C239.789 971.075 262.978 978.688 313.712 982.197C344 984.289 372.984 983.181 400.723 979.95C498.637 966.049 559.658 927.141 630.664 919.568C650.085 917.498 692.798 918.384 727.593 921.886C729.72 922.082 731.852 922.287 733.988 922.501C777.956 926.919 794.139 939.338 743.298 946.898Z" stroke="white" stroke-opacity="0.05" stroke-width="40"/>
<path fill-rule="evenodd" clip-rule="evenodd" d="M908.951 288.756C810.625 60.407 1159.82 47.7346 1214.33 184.262C1219.92 198.246 1237.6 239.903 1184.03 263.992C1185.17 280.895 1178.84 304.019 1201.9 349.193C1218.96 382.599 1204.62 392.922 1162.4 341.157C1103.38 268.774 1043.1 175.14 998.452 211.822C945.845 255.042 1098.55 458.503 1158.17 539.085C1279.92 703.293 1301.08 908.251 1133.27 993.82C1084.7 1018.58 851.615 1031.65 741.866 1038.37C850.17 935.673 1050.98 1012.68 1117.04 853.625C1125.71 832.741 1134.77 806.59 1130.9 763.828C1116.06 599.842 1007.28 517.105 908.951 288.756Z" stroke="white" stroke-opacity="0.05" stroke-width="40"/>
</svg>
