<svg width="79" height="42" viewBox="0 0 79 42" fill="none" xmlns="http://www.w3.org/2000/svg">
<path fill-rule="evenodd" clip-rule="evenodd" d="M45.9276 24.4682C45.9919 32.2309 44.278 32.7904 43.4067 34.1762C41.8762 36.6107 48.3902 32.7021 49.5733 31.0884C51.9421 27.857 54.602 25.6484 58.2069 23.6465C60.1299 22.5786 61.8212 22.1529 64.2975 21.7519C66.8604 21.3368 68.9871 20.0038 70.749 18.2085C73.8726 15.2604 77.5672 7.42006 78.7033 3.0991C78.7563 2.89727 78.7459 2.72582 78.5999 2.56153C78.439 2.38047 78.1997 2.33781 77.9851 2.44408C77.8984 2.48696 77.8294 2.5369 77.7779 2.59394C77.3618 3.03099 76.9097 3.4936 76.4343 3.86568C71.6993 7.38476 66.1225 10.2675 60.0174 10.9715C56.1605 11.4162 53.3066 12.4366 50.5228 14.8555C48.2134 16.8621 46.2173 20.1087 45.9276 24.4682Z" fill="white"/>
<path fill-rule="evenodd" clip-rule="evenodd" d="M54.7939 33.7579C60.3817 34.5336 66.2432 35.6667 69.6465 30.0708C70.3163 28.9696 74.1143 21.0688 73.3128 20.3391C73.1661 20.2052 72.9673 20.1908 72.8014 20.2958C72.7344 20.3382 72.6824 20.3848 72.6453 20.4357C72.1877 21.0298 71.7508 21.7631 71.1602 22.2286C69.0089 23.6997 66.9055 24.673 64.1253 25.0392C62.6568 25.2326 61.4617 25.1258 59.9953 25.4794C54.5087 25.7262 49.5298 32.703 47.5365 34.5418C45.051 36.8347 51.0624 33.0728 54.7939 33.7579Z" fill="white"/>
<path fill-rule="evenodd" clip-rule="evenodd" d="M50.0084 36.4308C50.2076 36.4525 50.4428 36.4799 50.7138 36.5131C50.7948 36.523 50.8722 36.5327 50.946 36.542C52.5025 36.8014 53.9196 36.9543 55.3368 37.5644C57.2791 38.4004 59.1057 39.1971 61.324 39.724C64.8593 40.5639 69.9116 38.6743 71.4596 35.3816C71.4955 35.3054 71.4856 35.1302 71.4554 35.0649C71.3833 34.9488 71.2543 34.9011 71.1238 34.9381C71.0705 34.9532 71.0264 34.9742 70.9916 35.0009C69.4766 36.0979 68.602 36.4502 66.6552 36.7134C65.4931 36.8704 64.3731 36.9005 63.2958 36.8455C59.4868 36.555 57.0371 35.2057 54.2812 35.0919C53.5275 35.0608 51.8833 35.2024 50.551 35.4253C50.4695 35.4382 50.3878 35.4515 50.306 35.4651C48.6224 35.7463 48.0298 36.2667 50.0084 36.4308Z" fill="white"/>
<path fill-rule="evenodd" clip-rule="evenodd" d="M47.6182 11.1643C50.8362 2.11919 37.3393 2.50729 35.5799 7.90455C35.3996 8.4574 34.8224 10.1068 36.9486 10.9005C36.947 11.5547 37.2494 12.4298 36.4735 14.2282C35.8996 15.5582 36.4787 15.9199 37.9764 13.8195C40.0707 10.8824 42.1599 7.12334 43.9737 8.42466C46.1109 9.95789 40.7334 18.1806 38.6368 21.4351C34.3543 28.0676 34.0534 36.0178 40.7393 38.8936C42.6741 39.7257 51.6951 39.6443 55.944 39.6278C51.5097 35.9427 43.9599 39.4139 41.0129 33.4512C40.6259 32.6683 40.2111 31.6834 40.2529 30.0261C40.4133 23.6704 44.4002 20.2094 47.6182 11.1643Z" fill="white"/>
<path fill-rule="evenodd" clip-rule="evenodd" d="M35.7252 5.67473L33.2102 3.94325C33.7675 3.55154 34.4708 3.42685 35.3062 3.54547C35.0835 2.7657 35.3588 1.81962 35.7057 0.759736C36.785 1.0427 37.7298 1.32407 38.2648 1.93369C38.6178 1.16767 39.1037 0.644555 39.7351 0.388672L39.8283 3.43947C37.8581 4.19399 37.4273 4.4287 35.7252 5.67473Z" fill="white"/>
</svg>
