<svg width="17" height="20" viewBox="0 0 17 20" fill="none" xmlns="http://www.w3.org/2000/svg">
<path d="M8.47374 20C8.37237 20.0006 8.27187 19.9811 8.17803 19.9428C8.08418 19.9045 7.99882 19.848 7.92685 19.7766L2.48105 14.3847C1.6948 13.6037 1.07082 12.6748 0.645015 11.6516C0.219212 10.6284 0 9.5311 0 8.42285C0 7.31459 0.219212 6.21728 0.645015 5.19408C1.07082 4.17089 1.6948 3.24203 2.48105 2.46097C4.07707 0.88421 6.23021 0 8.47374 0C10.7173 0 12.8704 0.88421 14.4664 2.46097C15.2527 3.24203 15.8767 4.17089 16.3025 5.19408C16.7283 6.21728 16.9475 7.31459 16.9475 8.42285C16.9475 9.5311 16.7283 10.6284 16.3025 11.6516C15.8767 12.6748 15.2527 13.6037 14.4664 14.3847L9.02063 19.7766C8.94866 19.848 8.8633 19.9045 8.76945 19.9428C8.6756 19.9811 8.57511 20.0006 8.47374 20ZM8.47374 1.51354C6.63531 1.50902 4.87037 2.23495 3.56713 3.53164C2.92528 4.16949 2.4159 4.92797 2.0683 5.76343C1.72071 6.5989 1.54177 7.49485 1.54177 8.39974C1.54177 9.30462 1.72071 10.2006 2.0683 11.036C2.4159 11.8715 2.92528 12.63 3.56713 13.2678L8.47374 18.1436L13.3804 13.2678C14.0222 12.63 14.5316 11.8715 14.8792 11.036C15.2268 10.2006 15.4057 9.30462 15.4057 8.39974C15.4057 7.49485 15.2268 6.5989 14.8792 5.76343C14.5316 4.92797 14.0222 4.16949 13.3804 3.53164C12.0771 2.23495 10.3122 1.50902 8.47374 1.51354Z" fill="white"/>
<path d="M8.47378 12.2964C7.71206 12.2964 6.96744 12.0706 6.33409 11.6474C5.70074 11.2242 5.2071 10.6227 4.9156 9.91894C4.62411 9.2152 4.54784 8.44082 4.69644 7.69374C4.84505 6.94665 5.21185 6.2604 5.75047 5.72178C6.28909 5.18316 6.97533 4.81636 7.72242 4.66775C8.46951 4.51915 9.24389 4.59542 9.94763 4.88692C10.6514 5.17842 11.2529 5.67205 11.6761 6.3054C12.0992 6.93875 12.3251 7.68337 12.3251 8.4451C12.3251 9.46654 11.9194 10.4461 11.1971 11.1684C10.4748 11.8907 9.49522 12.2964 8.47378 12.2964ZM8.47378 6.13429C8.01675 6.13429 7.56998 6.26982 7.18997 6.52373C6.80996 6.77765 6.51377 7.13854 6.33888 7.56079C6.16398 7.98303 6.11821 8.44766 6.20738 8.89591C6.29654 9.34416 6.51662 9.75591 6.8398 10.0791C7.16297 10.4023 7.57471 10.6223 8.02297 10.7115C8.47122 10.8007 8.93584 10.7549 9.35809 10.58C9.78033 10.4051 10.1412 10.1089 10.3951 9.72891C10.6491 9.3489 10.7846 8.90213 10.7846 8.4451C10.7846 7.83223 10.5411 7.24447 10.1078 6.81111C9.67441 6.37775 9.08665 6.13429 8.47378 6.13429Z" fill="white"/>
</svg>
