<svg width="20" height="20" viewBox="0 0 20 20" fill="none" xmlns="http://www.w3.org/2000/svg">
<path d="M19.0091 15.4003L18.9186 15.1276C18.7042 14.4905 18.0017 13.8261 17.3563 13.6511L14.9676 12.9985C14.3198 12.8223 13.3958 13.0593 12.9218 13.5332L12.0573 14.3977C8.91549 13.5487 6.4518 11.085 5.60397 7.94373L6.46853 7.07917C6.94247 6.60523 7.17941 5.68241 7.00317 5.03463L6.35181 2.64475C6.17558 1.99816 5.50993 1.29563 4.87408 1.08365L4.6014 0.99197C3.96433 0.779994 3.05577 0.99437 2.58186 1.46828L1.28867 2.76265C1.05764 2.99246 0.909986 3.64976 0.909986 3.65216C0.864755 7.75793 2.47467 11.7136 5.37893 14.6179C8.27605 17.5151 12.2169 19.1226 16.3108 19.0881C16.3322 19.0881 17.0086 18.9428 17.2396 18.713L18.5328 17.4198C19.0067 16.9459 19.221 16.0374 19.0091 15.4003Z" stroke="white" stroke-width="1.5"/>
</svg>
