<svg width="22" height="13" viewBox="0 0 22 13" fill="none" xmlns="http://www.w3.org/2000/svg">
<path fill-rule="evenodd" clip-rule="evenodd" d="M10.893 12.5471H12.1544C12.1544 12.5471 12.5354 12.5053 12.73 12.2956C12.909 12.1031 12.9033 11.7415 12.9033 11.7415C12.9033 11.7415 12.8787 10.049 13.6642 9.79972C14.4386 9.5542 15.433 11.4356 16.487 12.159C17.284 12.7064 17.8896 12.5864 17.8896 12.5864L20.7078 12.5471C20.7078 12.5471 22.1821 12.4563 21.4831 11.2972C21.4258 11.2024 21.076 10.4397 19.3877 8.87265C17.6206 7.2325 17.8573 7.49779 19.9859 4.66069C21.2822 2.93288 21.8005 1.87803 21.6386 1.42624C21.4842 0.995932 20.5308 1.10967 20.5308 1.10967L17.3576 1.12944C17.3576 1.12944 17.1224 1.09735 16.9479 1.20163C16.7775 1.30391 16.6678 1.54227 16.6678 1.54227C16.6678 1.54227 16.1655 2.87931 15.4957 4.01638C14.0828 6.41572 13.5178 6.54235 13.2869 6.39338C12.7497 6.04615 12.8838 4.99846 12.8838 4.25417C12.8838 1.92903 13.2365 0.959549 12.1971 0.708585C11.8522 0.625217 11.5983 0.570211 10.7162 0.56133C9.58404 0.549584 8.62574 0.564768 8.08313 0.830629C7.72215 1.00739 7.44369 1.40131 7.61329 1.42395C7.823 1.45202 8.29799 1.55201 8.54982 1.89493C8.87498 2.33727 8.86352 3.33081 8.86352 3.33081C8.86352 3.33081 9.05031 6.06792 8.4272 6.40799C7.99947 6.64119 7.41274 6.16504 6.15305 3.9883C5.5076 2.87329 5.02028 1.64082 5.02028 1.64082C5.02028 1.64082 4.92631 1.41048 4.75872 1.28729C4.55531 1.13803 4.27111 1.09047 4.27111 1.09047L1.25582 1.11024C1.25582 1.11024 0.80317 1.12285 0.637007 1.31966C0.489178 1.49471 0.62526 1.85683 0.62526 1.85683C0.62526 1.85683 2.98593 7.37975 5.65886 10.163C8.10977 12.7147 10.893 12.5471 10.893 12.5471Z" fill="white"/>
</svg>
